<svg class="svg-icon" style="width: 1em; height: 1em;vertical-align: middle;fill: currentColor;overflow: hidden;" viewBox="0 0 1024 1024" version="1.1" xmlns="http://www.w3.org/2000/svg"><path d="M1006.344828 105.931034H17.655172a17.655172 17.655172 0 0 0-17.655172 17.655173v776.827586a17.655172 17.655172 0 0 0 17.655172 17.655173h988.689656a17.655172 17.655172 0 0 0 17.655172-17.655173V123.586207a17.655172 17.655172 0 0 0-17.655172-17.655173zM176.551724 882.758621H35.310345v-158.896552h141.241379v158.896552z m0-194.206897H35.310345v-158.896552h141.241379v158.896552z m0-194.206896H35.310345v-158.896552h141.241379v158.896552z m0-194.206897H35.310345V141.241379h141.241379v158.896552z m468.51531 226.763035l-194.206896 123.586206a17.778759 17.778759 0 0 1-17.972966 0.582621A17.672828 17.672828 0 0 1 423.724138 635.586207V388.413793a17.672828 17.672828 0 0 1 27.153655-14.900965l194.206897 123.586206a17.708138 17.708138 0 0 1-0.017656 29.801932zM988.689655 882.758621h-141.241379v-158.896552h141.241379v158.896552z m0-194.206897h-141.241379v-158.896552h141.241379v158.896552z m0-194.206896h-141.241379v-158.896552h141.241379v158.896552z m0-194.206897h-141.241379V141.241379h141.241379v158.896552z"  /></svg>